<?xml version="1.0" encoding="UTF-8" standalone="no"?>
<!DOCTYPE svg PUBLIC "-//W3C//DTD SVG 1.1//EN" "http://www.w3.org/Graphics/SVG/1.1/DTD/svg11.dtd">
<svg xmlns="http://www.w3.org/2000/svg" preserveAspectRatio="xMidYMid meet">
  <defs>
  <style>
    rect, circle{fill: #333; stroke: #000;}
  </style>
</defs>
    <rect width="25" height="250" x="0" y="30" class="table" data-table="GNT6XuKRb978YFYm5" />         <!-- bar -->
    <rect width="25" height="200" x="0" y="300" class="table" data-table="uaxQDNQocMiHkE5tz" />       <!-- kuchyně -->

    <rect width="65" height="100" x="100" y="30" class="table" data-table="woJoRt3suRsSJyGhn" />         <!-- 6 -->
    <rect width="65" height="100" x="100" y="130" class="table" data-table="totYihv9oethxSSmo" />       <!-- 5 -->

    <rect width="100" height="65" x="35" y="435" class="table" data-table="nAi9cuhXJdbf6tSPy" />        <!-- géčko -->
    <rect width="65" height="100" x="145" y="355" class="table" data-table="XMebTLZ6Hcd2MpKMp" />       <!-- almara -->

    <circle cx="125" cy="312.5" r="32.5" data-table="MgMyTJHeFhS9EDe4e" />                               <!-- Sud -->

    <rect width="100" height="65" x="200" y="280" class="table" data-table="L95xubXb6WSxRi6Gh" />       <!-- 1 -->
    <rect width="100" height="65" x="320" y="280" class="table" data-table="fnvFAWuqueH3xZug7" />       <!-- 2 -->
    <rect width="100" height="65" x="440" y="280" class="table" data-table="h9z9AhW4nkRebhB8" />       <!-- 3 -->
    <rect width="100" height="65" x="560" y="280" class="table" data-table="2JFTZSP4sywsDFN7s" />       <!-- 4 -->

    <rect width="65" height="100" x="450" y="130" class="table" data-table="rTgYhxxnsxCTJsuPc" />         <!-- pták -->
    <rect width="65" height="100" x="595" y="130" class="table" data-table="g3tiBR3p8DfwKqp9p" />       <!-- piáno -->

    <rect width="200" height="65" x="220" y="147.5" class="table" data-table="NBtnqg54x6mJXp6gB" />       <!-- střed -->

    <rect width="65" height="100" x="300" y="0" class="table" data-table="424g2CZf4nnXberRu" />         <!-- krb -->

    <rect width="100" height="65" x="400" y="17.5" class="table" data-table="xXPc2KRsvjh8YZRbH" />         <!-- H1 -->
    <rect width="100" height="65" x="560" y="17.5" class="table" data-table="HH9kYvwHRens4hNQ4" />         <!-- H2 -->


</svg>